<svg width="1727" height="1702" viewBox="0 0 1727 1702" fill="none" xmlns="http://www.w3.org/2000/svg">
<mask id="path-1-inside-1_1740_179549" fill="white">
<path fill-rule="evenodd" clip-rule="evenodd" d="M1727 70.3442C1727 31.742 1695.71 0.44873 1657.1 0.44873H203.937C184.736 0.44873 166.381 8.34752 153.18 22.2908L19.1387 163.873C6.849 176.854 0 194.051 0 211.927V1631.34C0 1669.94 31.2931 1701.24 69.8953 1701.24H1507.43C1525.02 1701.24 1541.96 1694.61 1554.88 1682.67L1704.55 1544.34C1718.86 1531.11 1727 1512.5 1727 1493.01V1040.46C1727 1009.47 1701.43 983.078 1689.11 954.644C1685.96 947.376 1684.22 939.358 1684.22 930.932V424.19C1684.22 415.764 1685.96 407.746 1689.11 400.478C1701.43 372.044 1727 345.648 1727 314.661V70.3442Z"/>
</mask>
<g filter="url(#filter0_i_1740_179549)">
<path fill-rule="evenodd" clip-rule="evenodd" d="M1727 70.3442C1727 31.742 1695.71 0.44873 1657.1 0.44873H203.937C184.736 0.44873 166.381 8.34752 153.18 22.2908L19.1387 163.873C6.849 176.854 0 194.051 0 211.927V1631.34C0 1669.94 31.2931 1701.24 69.8953 1701.24H1507.43C1525.02 1701.24 1541.96 1694.61 1554.88 1682.67L1704.55 1544.34C1718.86 1531.11 1727 1512.5 1727 1493.01V1040.46C1727 1009.47 1701.43 983.078 1689.11 954.644C1685.96 947.376 1684.22 939.358 1684.22 930.932V424.19C1684.22 415.764 1685.96 407.746 1689.11 400.478C1701.43 372.044 1727 345.648 1727 314.661V70.3442Z" fill="#0A0D15"/>
</g>
<path d="M1689.11 400.478L1686.44 399.32L1689.11 400.478ZM1689.11 954.644L1691.78 953.487L1689.11 954.644ZM19.1387 163.873L17.0238 161.871L19.1387 163.873ZM203.937 3.36104H1657.1V-2.46358H203.937V3.36104ZM21.2536 165.876L155.295 24.293L151.065 20.2886L17.0238 161.871L21.2536 165.876ZM2.91231 1631.34V211.927H-2.91231V1631.34H2.91231ZM1507.43 1698.33H69.8953V1704.15H1507.43V1698.33ZM1702.57 1542.2L1552.9 1680.53L1556.85 1684.81L1706.52 1546.48L1702.57 1542.2ZM1724.09 1040.46V1493.01H1729.91V1040.46H1724.09ZM1691.78 953.487C1688.79 946.577 1687.13 938.952 1687.13 930.932H1681.3C1681.3 939.763 1683.13 948.175 1686.44 955.802L1691.78 953.487ZM1687.13 930.932V424.19H1681.3V930.932H1687.13ZM1687.13 424.19C1687.13 416.17 1688.79 408.545 1691.78 401.635L1686.44 399.32C1683.13 406.947 1681.3 415.359 1681.3 424.19H1687.13ZM1724.09 70.3442V314.661H1729.91V70.3442H1724.09ZM1691.78 401.635C1697.87 387.593 1707.09 374.322 1715.21 359.96C1723.2 345.839 1729.91 330.941 1729.91 314.661H1724.09C1724.09 329.367 1718.02 343.161 1710.14 357.093C1702.4 370.785 1692.67 384.929 1686.44 399.32L1691.78 401.635ZM1729.91 1040.46C1729.91 1024.18 1723.2 1009.28 1715.21 995.162C1707.09 980.8 1697.87 967.529 1691.78 953.487L1686.44 955.802C1692.67 970.193 1702.4 984.337 1710.14 998.029C1718.02 1011.96 1724.09 1025.76 1724.09 1040.46H1729.91ZM1706.52 1546.48C1721.43 1532.7 1729.91 1513.32 1729.91 1493.01H1724.09C1724.09 1511.69 1716.29 1529.52 1702.57 1542.2L1706.52 1546.48ZM1507.43 1704.15C1525.75 1704.15 1543.4 1697.24 1556.85 1684.81L1552.9 1680.53C1540.52 1691.97 1524.29 1698.33 1507.43 1698.33V1704.15ZM-2.91231 1631.34C-2.91231 1671.55 29.6847 1704.15 69.8953 1704.15V1698.33C32.9015 1698.33 2.91231 1668.34 2.91231 1631.34H-2.91231ZM17.0238 161.871C4.22206 175.393 -2.91231 193.306 -2.91231 211.927H2.91231C2.91231 194.796 9.47594 178.316 21.2536 165.876L17.0238 161.871ZM1657.1 3.36104C1694.1 3.36104 1724.09 33.3504 1724.09 70.3442H1729.91C1729.91 30.1336 1697.32 -2.46358 1657.1 -2.46358V3.36104ZM203.937 -2.46358C183.936 -2.46358 164.816 5.76433 151.065 20.2886L155.295 24.293C167.946 10.9307 185.536 3.36104 203.937 3.36104V-2.46358Z" fill="white" fill-opacity="0.15" mask="url(#path-1-inside-1_1740_179549)"/>
<defs>
<filter id="filter0_i_1740_179549" x="0" y="0.44873" width="1727" height="1700.79" filterUnits="userSpaceOnUse" color-interpolation-filters="sRGB">
<feFlood flood-opacity="0" result="BackgroundImageFix"/>
<feBlend mode="normal" in="SourceGraphic" in2="BackgroundImageFix" result="shape"/>
<feColorMatrix in="SourceAlpha" type="matrix" values="0 0 0 0 0 0 0 0 0 0 0 0 0 0 0 0 0 0 127 0" result="hardAlpha"/>
<feMorphology radius="42.2077" operator="erode" in="SourceAlpha" result="effect1_innerShadow_1740_179549"/>
<feOffset/>
<feGaussianBlur stdDeviation="69.8954"/>
<feComposite in2="hardAlpha" operator="arithmetic" k2="-1" k3="1"/>
<feColorMatrix type="matrix" values="0 0 0 0 1 0 0 0 0 1 0 0 0 0 1 0 0 0 0.1 0"/>
<feBlend mode="normal" in2="shape" result="effect1_innerShadow_1740_179549"/>
</filter>
</defs>
</svg>
