<svg width="251" height="250" viewBox="0 0 251 250" fill="none" xmlns="http://www.w3.org/2000/svg">
<rect width="250" height="250" transform="translate(0.5)" fill="white"/>
<path d="M17.7412 17.2412H26.3619V25.8619H17.7412V17.2412Z" fill="black"/>
<path d="M26.3619 17.2412H34.9826V25.8619H26.3619V17.2412Z" fill="black"/>
<path d="M34.9826 17.2412H43.6033V25.8619H34.9826V17.2412Z" fill="black"/>
<path d="M43.6033 17.2412H52.224V25.8619H43.6033V17.2412Z" fill="black"/>
<path d="M52.224 17.2412H60.8447V25.8619H52.224V17.2412Z" fill="black"/>
<path d="M60.8447 17.2412H69.4653V25.8619H60.8447V17.2412Z" fill="black"/>
<path d="M69.4653 17.2412H78.086V25.8619H69.4653V17.2412Z" fill="black"/>
<path d="M86.7067 17.2412H95.3274V25.8619H86.7067V17.2412Z" fill="black"/>
<path d="M95.3274 17.2412H103.948V25.8619H95.3274V17.2412Z" fill="black"/>
<path d="M103.948 17.2412H112.569V25.8619H103.948V17.2412Z" fill="black"/>
<path d="M121.189 17.2412H129.81V25.8619H121.189V17.2412Z" fill="black"/>
<path d="M172.914 17.2412H181.534V25.8619H172.914V17.2412Z" fill="black"/>
<path d="M181.534 17.2412H190.155V25.8619H181.534V17.2412Z" fill="black"/>
<path d="M190.155 17.2412H198.776V25.8619H190.155V17.2412Z" fill="black"/>
<path d="M198.776 17.2412H207.396V25.8619H198.776V17.2412Z" fill="black"/>
<path d="M207.396 17.2412H216.017V25.8619H207.396V17.2412Z" fill="black"/>
<path d="M216.017 17.2412H224.638V25.8619H216.017V17.2412Z" fill="black"/>
<path d="M224.638 17.2412H233.258V25.8619H224.638V17.2412Z" fill="black"/>
<path d="M17.7412 25.8619H26.3619V34.4826H17.7412V25.8619Z" fill="black"/>
<path d="M69.4653 25.8619H78.086V34.4826H69.4653V25.8619Z" fill="black"/>
<path d="M112.569 25.8619H121.189V34.4826H112.569V25.8619Z" fill="black"/>
<path d="M121.189 25.8619H129.81V34.4826H121.189V25.8619Z" fill="black"/>
<path d="M129.81 25.8619H138.431V34.4826H129.81V25.8619Z" fill="black"/>
<path d="M147.052 25.8619H155.672V34.4826H147.052V25.8619Z" fill="black"/>
<path d="M155.672 25.8619H164.293V34.4826H155.672V25.8619Z" fill="black"/>
<path d="M172.914 25.8619H181.534V34.4826H172.914V25.8619Z" fill="black"/>
<path d="M224.638 25.8619H233.258V34.4826H224.638V25.8619Z" fill="black"/>
<path d="M17.7412 34.4826H26.3619V43.1033H17.7412V34.4826Z" fill="black"/>
<path d="M34.9826 34.4826H43.6033V43.1033H34.9826V34.4826Z" fill="black"/>
<path d="M43.6033 34.4826H52.224V43.1033H43.6033V34.4826Z" fill="black"/>
<path d="M52.224 34.4826H60.8447V43.1033H52.224V34.4826Z" fill="black"/>
<path d="M69.4653 34.4826H78.086V43.1033H69.4653V34.4826Z" fill="black"/>
<path d="M86.7067 34.4826H95.3274V43.1033H86.7067V34.4826Z" fill="black"/>
<path d="M95.3274 34.4826H103.948V43.1033H95.3274V34.4826Z" fill="black"/>
<path d="M121.189 34.4826H129.81V43.1033H121.189V34.4826Z" fill="black"/>
<path d="M147.052 34.4826H155.672V43.1033H147.052V34.4826Z" fill="black"/>
<path d="M155.672 34.4826H164.293V43.1033H155.672V34.4826Z" fill="black"/>
<path d="M172.914 34.4826H181.534V43.1033H172.914V34.4826Z" fill="black"/>
<path d="M190.155 34.4826H198.776V43.1033H190.155V34.4826Z" fill="black"/>
<path d="M198.776 34.4826H207.396V43.1033H198.776V34.4826Z" fill="black"/>
<path d="M207.396 34.4826H216.017V43.1033H207.396V34.4826Z" fill="black"/>
<path d="M224.638 34.4826H233.258V43.1033H224.638V34.4826Z" fill="black"/>
<path d="M17.7412 43.1033H26.3619V51.724H17.7412V43.1033Z" fill="black"/>
<path d="M34.9826 43.1033H43.6033V51.724H34.9826V43.1033Z" fill="black"/>
<path d="M43.6033 43.1033H52.224V51.724H43.6033V43.1033Z" fill="black"/>
<path d="M52.224 43.1033H60.8447V51.724H52.224V43.1033Z" fill="black"/>
<path d="M69.4653 43.1033H78.086V51.724H69.4653V43.1033Z" fill="black"/>
<path d="M95.3274 43.1033H103.948V51.724H95.3274V43.1033Z" fill="black"/>
<path d="M103.948 43.1033H112.569V51.724H103.948V43.1033Z" fill="black"/>
<path d="M112.569 43.1033H121.189V51.724H112.569V43.1033Z" fill="black"/>
<path d="M147.052 43.1033H155.672V51.724H147.052V43.1033Z" fill="black"/>
<path d="M172.914 43.1033H181.534V51.724H172.914V43.1033Z" fill="black"/>
<path d="M190.155 43.1033H198.776V51.724H190.155V43.1033Z" fill="black"/>
<path d="M198.776 43.1033H207.396V51.724H198.776V43.1033Z" fill="black"/>
<path d="M207.396 43.1033H216.017V51.724H207.396V43.1033Z" fill="black"/>
<path d="M224.638 43.1033H233.258V51.724H224.638V43.1033Z" fill="black"/>
<path d="M17.7412 51.724H26.3619V60.3447H17.7412V51.724Z" fill="black"/>
<path d="M34.9826 51.724H43.6033V60.3447H34.9826V51.724Z" fill="black"/>
<path d="M43.6033 51.724H52.224V60.3447H43.6033V51.724Z" fill="black"/>
<path d="M52.224 51.724H60.8447V60.3447H52.224V51.724Z" fill="black"/>
<path d="M69.4653 51.724H78.086V60.3447H69.4653V51.724Z" fill="black"/>
<path d="M86.7067 51.724H95.3274V60.3447H86.7067V51.724Z" fill="black"/>
<path d="M112.569 51.724H121.189V60.3447H112.569V51.724Z" fill="black"/>
<path d="M147.052 51.724H155.672V60.3447H147.052V51.724Z" fill="black"/>
<path d="M155.672 51.724H164.293V60.3447H155.672V51.724Z" fill="black"/>
<path d="M172.914 51.724H181.534V60.3447H172.914V51.724Z" fill="black"/>
<path d="M190.155 51.724H198.776V60.3447H190.155V51.724Z" fill="black"/>
<path d="M198.776 51.724H207.396V60.3447H198.776V51.724Z" fill="black"/>
<path d="M207.396 51.724H216.017V60.3447H207.396V51.724Z" fill="black"/>
<path d="M224.638 51.724H233.258V60.3447H224.638V51.724Z" fill="black"/>
<path d="M17.7412 60.3447H26.3619V68.9653H17.7412V60.3447Z" fill="black"/>
<path d="M69.4653 60.3447H78.086V68.9653H69.4653V60.3447Z" fill="black"/>
<path d="M147.052 60.3447H155.672V68.9653H147.052V60.3447Z" fill="black"/>
<path d="M155.672 60.3447H164.293V68.9653H155.672V60.3447Z" fill="black"/>
<path d="M172.914 60.3447H181.534V68.9653H172.914V60.3447Z" fill="black"/>
<path d="M224.638 60.3447H233.258V68.9653H224.638V60.3447Z" fill="black"/>
<path d="M17.7412 68.9653H26.3619V77.586H17.7412V68.9653Z" fill="black"/>
<path d="M26.3619 68.9653H34.9826V77.586H26.3619V68.9653Z" fill="black"/>
<path d="M34.9826 68.9653H43.6033V77.586H34.9826V68.9653Z" fill="black"/>
<path d="M43.6033 68.9653H52.224V77.586H43.6033V68.9653Z" fill="black"/>
<path d="M52.224 68.9653H60.8447V77.586H52.224V68.9653Z" fill="black"/>
<path d="M60.8447 68.9653H69.4653V77.586H60.8447V68.9653Z" fill="black"/>
<path d="M69.4653 68.9653H78.086V77.586H69.4653V68.9653Z" fill="black"/>
<path d="M86.7067 68.9653H95.3274V77.586H86.7067V68.9653Z" fill="black"/>
<path d="M103.948 68.9653H112.569V77.586H103.948V68.9653Z" fill="black"/>
<path d="M121.189 68.9653H129.81V77.586H121.189V68.9653Z" fill="black"/>
<path d="M138.431 68.9653H147.052V77.586H138.431V68.9653Z" fill="black"/>
<path d="M155.672 68.9653H164.293V77.586H155.672V68.9653Z" fill="black"/>
<path d="M172.914 68.9653H181.534V77.586H172.914V68.9653Z" fill="black"/>
<path d="M181.534 68.9653H190.155V77.586H181.534V68.9653Z" fill="black"/>
<path d="M190.155 68.9653H198.776V77.586H190.155V68.9653Z" fill="black"/>
<path d="M198.776 68.9653H207.396V77.586H198.776V68.9653Z" fill="black"/>
<path d="M207.396 68.9653H216.017V77.586H207.396V68.9653Z" fill="black"/>
<path d="M216.017 68.9653H224.638V77.586H216.017V68.9653Z" fill="black"/>
<path d="M224.638 68.9653H233.258V77.586H224.638V68.9653Z" fill="black"/>
<path d="M86.7067 77.586H95.3274V86.2067H86.7067V77.586Z" fill="black"/>
<path d="M103.948 77.586H112.569V86.2067H103.948V77.586Z" fill="black"/>
<path d="M121.189 77.586H129.81V86.2067H121.189V77.586Z" fill="black"/>
<path d="M129.81 77.586H138.431V86.2067H129.81V77.586Z" fill="black"/>
<path d="M147.052 77.586H155.672V86.2067H147.052V77.586Z" fill="black"/>
<path d="M60.8447 86.2067H69.4653V94.8274H60.8447V86.2067Z" fill="black"/>
<path d="M69.4653 86.2067H78.086V94.8274H69.4653V86.2067Z" fill="black"/>
<path d="M95.3274 86.2067H103.948V94.8274H95.3274V86.2067Z" fill="black"/>
<path d="M121.189 86.2067H129.81V94.8274H121.189V86.2067Z" fill="black"/>
<path d="M129.81 86.2067H138.431V94.8274H129.81V86.2067Z" fill="black"/>
<path d="M147.052 86.2067H155.672V94.8274H147.052V86.2067Z" fill="black"/>
<path d="M172.914 86.2067H181.534V94.8274H172.914V86.2067Z" fill="black"/>
<path d="M190.155 86.2067H198.776V94.8274H190.155V86.2067Z" fill="black"/>
<path d="M207.396 86.2067H216.017V94.8274H207.396V86.2067Z" fill="black"/>
<path d="M224.638 86.2067H233.258V94.8274H224.638V86.2067Z" fill="black"/>
<path d="M26.3619 94.8274H34.9826V103.448H26.3619V94.8274Z" fill="black"/>
<path d="M60.8447 94.8274H69.4653V103.448H60.8447V94.8274Z" fill="black"/>
<path d="M78.086 94.8274H86.7067V103.448H78.086V94.8274Z" fill="black"/>
<path d="M86.7067 94.8274H95.3274V103.448H86.7067V94.8274Z" fill="black"/>
<path d="M95.3274 94.8274H103.948V103.448H95.3274V94.8274Z" fill="black"/>
<path d="M138.431 94.8274H147.052V103.448H138.431V94.8274Z" fill="black"/>
<path d="M147.052 94.8274H155.672V103.448H147.052V94.8274Z" fill="black"/>
<path d="M164.293 94.8274H172.914V103.448H164.293V94.8274Z" fill="black"/>
<path d="M181.534 94.8274H190.155V103.448H181.534V94.8274Z" fill="black"/>
<path d="M190.155 94.8274H198.776V103.448H190.155V94.8274Z" fill="black"/>
<path d="M198.776 94.8274H207.396V103.448H198.776V94.8274Z" fill="black"/>
<path d="M17.7412 103.448H26.3619V112.069H17.7412V103.448Z" fill="black"/>
<path d="M34.9826 103.448H43.6033V112.069H34.9826V103.448Z" fill="black"/>
<path d="M43.6033 103.448H52.224V112.069H43.6033V103.448Z" fill="black"/>
<path d="M52.224 103.448H60.8447V112.069H52.224V103.448Z" fill="black"/>
<path d="M69.4653 103.448H78.086V112.069H69.4653V103.448Z" fill="black"/>
<path d="M95.3274 103.448H103.948V112.069H95.3274V103.448Z" fill="black"/>
<path d="M112.569 103.448H121.189V112.069H112.569V103.448Z" fill="black"/>
<path d="M138.431 103.448H147.052V112.069H138.431V103.448Z" fill="black"/>
<path d="M147.052 103.448H155.672V112.069H147.052V103.448Z" fill="black"/>
<path d="M155.672 103.448H164.293V112.069H155.672V103.448Z" fill="black"/>
<path d="M216.017 103.448H224.638V112.069H216.017V103.448Z" fill="black"/>
<path d="M224.638 103.448H233.258V112.069H224.638V103.448Z" fill="black"/>
<path d="M26.3619 112.069H34.9826V120.689H26.3619V112.069Z" fill="black"/>
<path d="M34.9826 112.069H43.6033V120.689H34.9826V112.069Z" fill="black"/>
<path d="M43.6033 112.069H52.224V120.689H43.6033V112.069Z" fill="black"/>
<path d="M86.7067 112.069H95.3274V120.689H86.7067V112.069Z" fill="black"/>
<path d="M103.948 112.069H112.569V120.689H103.948V112.069Z" fill="black"/>
<path d="M129.81 112.069H138.431V120.689H129.81V112.069Z" fill="black"/>
<path d="M155.672 112.069H164.293V120.689H155.672V112.069Z" fill="black"/>
<path d="M164.293 112.069H172.914V120.689H164.293V112.069Z" fill="black"/>
<path d="M172.914 112.069H181.534V120.689H172.914V112.069Z" fill="black"/>
<path d="M190.155 112.069H198.776V120.689H190.155V112.069Z" fill="black"/>
<path d="M198.776 112.069H207.396V120.689H198.776V112.069Z" fill="black"/>
<path d="M216.017 112.069H224.638V120.689H216.017V112.069Z" fill="black"/>
<path d="M26.3619 120.689H34.9826V129.31H26.3619V120.689Z" fill="black"/>
<path d="M43.6033 120.689H52.224V129.31H43.6033V120.689Z" fill="black"/>
<path d="M52.224 120.689H60.8447V129.31H52.224V120.689Z" fill="black"/>
<path d="M60.8447 120.689H69.4653V129.31H60.8447V120.689Z" fill="black"/>
<path d="M69.4653 120.689H78.086V129.31H69.4653V120.689Z" fill="black"/>
<path d="M86.7067 120.689H95.3274V129.31H86.7067V120.689Z" fill="black"/>
<path d="M95.3274 120.689H103.948V129.31H95.3274V120.689Z" fill="black"/>
<path d="M138.431 120.689H147.052V129.31H138.431V120.689Z" fill="black"/>
<path d="M147.052 120.689H155.672V129.31H147.052V120.689Z" fill="black"/>
<path d="M164.293 120.689H172.914V129.31H164.293V120.689Z" fill="black"/>
<path d="M172.914 120.689H181.534V129.31H172.914V120.689Z" fill="black"/>
<path d="M198.776 120.689H207.396V129.31H198.776V120.689Z" fill="black"/>
<path d="M17.7412 129.31H26.3619V137.931H17.7412V129.31Z" fill="black"/>
<path d="M34.9826 129.31H43.6033V137.931H34.9826V129.31Z" fill="black"/>
<path d="M52.224 129.31H60.8447V137.931H52.224V129.31Z" fill="black"/>
<path d="M60.8447 129.31H69.4653V137.931H60.8447V129.31Z" fill="black"/>
<path d="M78.086 129.31H86.7067V137.931H78.086V129.31Z" fill="black"/>
<path d="M86.7067 129.31H95.3274V137.931H86.7067V129.31Z" fill="black"/>
<path d="M95.3274 129.31H103.948V137.931H95.3274V129.31Z" fill="black"/>
<path d="M103.948 129.31H112.569V137.931H103.948V129.31Z" fill="black"/>
<path d="M112.569 129.31H121.189V137.931H112.569V129.31Z" fill="black"/>
<path d="M129.81 129.31H138.431V137.931H129.81V129.31Z" fill="black"/>
<path d="M172.914 129.31H181.534V137.931H172.914V129.31Z" fill="black"/>
<path d="M181.534 129.31H190.155V137.931H181.534V129.31Z" fill="black"/>
<path d="M17.7412 137.931H26.3619V146.552H17.7412V137.931Z" fill="black"/>
<path d="M34.9826 137.931H43.6033V146.552H34.9826V137.931Z" fill="black"/>
<path d="M60.8447 137.931H69.4653V146.552H60.8447V137.931Z" fill="black"/>
<path d="M69.4653 137.931H78.086V146.552H69.4653V137.931Z" fill="black"/>
<path d="M78.086 137.931H86.7067V146.552H78.086V137.931Z" fill="black"/>
<path d="M86.7067 137.931H95.3274V146.552H86.7067V137.931Z" fill="black"/>
<path d="M121.189 137.931H129.81V146.552H121.189V137.931Z" fill="black"/>
<path d="M147.052 137.931H155.672V146.552H147.052V137.931Z" fill="black"/>
<path d="M155.672 137.931H164.293V146.552H155.672V137.931Z" fill="black"/>
<path d="M164.293 137.931H172.914V146.552H164.293V137.931Z" fill="black"/>
<path d="M181.534 137.931H190.155V146.552H181.534V137.931Z" fill="black"/>
<path d="M190.155 137.931H198.776V146.552H190.155V137.931Z" fill="black"/>
<path d="M198.776 137.931H207.396V146.552H198.776V137.931Z" fill="black"/>
<path d="M207.396 137.931H216.017V146.552H207.396V137.931Z" fill="black"/>
<path d="M216.017 137.931H224.638V146.552H216.017V137.931Z" fill="black"/>
<path d="M224.638 137.931H233.258V146.552H224.638V137.931Z" fill="black"/>
<path d="M17.7412 146.552H26.3619V155.172H17.7412V146.552Z" fill="black"/>
<path d="M43.6033 146.552H52.224V155.172H43.6033V146.552Z" fill="black"/>
<path d="M60.8447 146.552H69.4653V155.172H60.8447V146.552Z" fill="black"/>
<path d="M95.3274 146.552H103.948V155.172H95.3274V146.552Z" fill="black"/>
<path d="M103.948 146.552H112.569V155.172H103.948V146.552Z" fill="black"/>
<path d="M112.569 146.552H121.189V155.172H112.569V146.552Z" fill="black"/>
<path d="M121.189 146.552H129.81V155.172H121.189V146.552Z" fill="black"/>
<path d="M129.81 146.552H138.431V155.172H129.81V146.552Z" fill="black"/>
<path d="M155.672 146.552H164.293V155.172H155.672V146.552Z" fill="black"/>
<path d="M198.776 146.552H207.396V155.172H198.776V146.552Z" fill="black"/>
<path d="M207.396 146.552H216.017V155.172H207.396V146.552Z" fill="black"/>
<path d="M216.017 146.552H224.638V155.172H216.017V146.552Z" fill="black"/>
<path d="M17.7412 155.172H26.3619V163.793H17.7412V155.172Z" fill="black"/>
<path d="M43.6033 155.172H52.224V163.793H43.6033V155.172Z" fill="black"/>
<path d="M52.224 155.172H60.8447V163.793H52.224V155.172Z" fill="black"/>
<path d="M69.4653 155.172H78.086V163.793H69.4653V155.172Z" fill="black"/>
<path d="M78.086 155.172H86.7067V163.793H78.086V155.172Z" fill="black"/>
<path d="M86.7067 155.172H95.3274V163.793H86.7067V155.172Z" fill="black"/>
<path d="M95.3274 155.172H103.948V163.793H95.3274V155.172Z" fill="black"/>
<path d="M121.189 155.172H129.81V163.793H121.189V155.172Z" fill="black"/>
<path d="M129.81 155.172H138.431V163.793H129.81V155.172Z" fill="black"/>
<path d="M138.431 155.172H147.052V163.793H138.431V155.172Z" fill="black"/>
<path d="M147.052 155.172H155.672V163.793H147.052V155.172Z" fill="black"/>
<path d="M155.672 155.172H164.293V163.793H155.672V155.172Z" fill="black"/>
<path d="M164.293 155.172H172.914V163.793H164.293V155.172Z" fill="black"/>
<path d="M172.914 155.172H181.534V163.793H172.914V155.172Z" fill="black"/>
<path d="M181.534 155.172H190.155V163.793H181.534V155.172Z" fill="black"/>
<path d="M190.155 155.172H198.776V163.793H190.155V155.172Z" fill="black"/>
<path d="M198.776 155.172H207.396V163.793H198.776V155.172Z" fill="black"/>
<path d="M207.396 155.172H216.017V163.793H207.396V155.172Z" fill="black"/>
<path d="M86.7067 163.793H95.3274V172.414H86.7067V163.793Z" fill="black"/>
<path d="M138.431 163.793H147.052V172.414H138.431V163.793Z" fill="black"/>
<path d="M155.672 163.793H164.293V172.414H155.672V163.793Z" fill="black"/>
<path d="M190.155 163.793H198.776V172.414H190.155V163.793Z" fill="black"/>
<path d="M17.7412 172.414H26.3619V181.034H17.7412V172.414Z" fill="black"/>
<path d="M26.3619 172.414H34.9826V181.034H26.3619V172.414Z" fill="black"/>
<path d="M34.9826 172.414H43.6033V181.034H34.9826V172.414Z" fill="black"/>
<path d="M43.6033 172.414H52.224V181.034H43.6033V172.414Z" fill="black"/>
<path d="M52.224 172.414H60.8447V181.034H52.224V172.414Z" fill="black"/>
<path d="M60.8447 172.414H69.4653V181.034H60.8447V172.414Z" fill="black"/>
<path d="M69.4653 172.414H78.086V181.034H69.4653V172.414Z" fill="black"/>
<path d="M129.81 172.414H138.431V181.034H129.81V172.414Z" fill="black"/>
<path d="M147.052 172.414H155.672V181.034H147.052V172.414Z" fill="black"/>
<path d="M155.672 172.414H164.293V181.034H155.672V172.414Z" fill="black"/>
<path d="M172.914 172.414H181.534V181.034H172.914V172.414Z" fill="black"/>
<path d="M190.155 172.414H198.776V181.034H190.155V172.414Z" fill="black"/>
<path d="M207.396 172.414H216.017V181.034H207.396V172.414Z" fill="black"/>
<path d="M224.638 172.414H233.258V181.034H224.638V172.414Z" fill="black"/>
<path d="M17.7412 181.034H26.3619V189.655H17.7412V181.034Z" fill="black"/>
<path d="M69.4653 181.034H78.086V189.655H69.4653V181.034Z" fill="black"/>
<path d="M86.7067 181.034H95.3274V189.655H86.7067V181.034Z" fill="black"/>
<path d="M103.948 181.034H112.569V189.655H103.948V181.034Z" fill="black"/>
<path d="M112.569 181.034H121.189V189.655H112.569V181.034Z" fill="black"/>
<path d="M138.431 181.034H147.052V189.655H138.431V181.034Z" fill="black"/>
<path d="M147.052 181.034H155.672V189.655H147.052V181.034Z" fill="black"/>
<path d="M155.672 181.034H164.293V189.655H155.672V181.034Z" fill="black"/>
<path d="M190.155 181.034H198.776V189.655H190.155V181.034Z" fill="black"/>
<path d="M198.776 181.034H207.396V189.655H198.776V181.034Z" fill="black"/>
<path d="M17.7412 189.655H26.3619V198.276H17.7412V189.655Z" fill="black"/>
<path d="M34.9826 189.655H43.6033V198.276H34.9826V189.655Z" fill="black"/>
<path d="M43.6033 189.655H52.224V198.276H43.6033V189.655Z" fill="black"/>
<path d="M52.224 189.655H60.8447V198.276H52.224V189.655Z" fill="black"/>
<path d="M69.4653 189.655H78.086V198.276H69.4653V189.655Z" fill="black"/>
<path d="M103.948 189.655H112.569V198.276H103.948V189.655Z" fill="black"/>
<path d="M121.189 189.655H129.81V198.276H121.189V189.655Z" fill="black"/>
<path d="M129.81 189.655H138.431V198.276H129.81V189.655Z" fill="black"/>
<path d="M155.672 189.655H164.293V198.276H155.672V189.655Z" fill="black"/>
<path d="M164.293 189.655H172.914V198.276H164.293V189.655Z" fill="black"/>
<path d="M172.914 189.655H181.534V198.276H172.914V189.655Z" fill="black"/>
<path d="M181.534 189.655H190.155V198.276H181.534V189.655Z" fill="black"/>
<path d="M190.155 189.655H198.776V198.276H190.155V189.655Z" fill="black"/>
<path d="M207.396 189.655H216.017V198.276H207.396V189.655Z" fill="black"/>
<path d="M17.7412 198.276H26.3619V206.896H17.7412V198.276Z" fill="black"/>
<path d="M34.9826 198.276H43.6033V206.896H34.9826V198.276Z" fill="black"/>
<path d="M43.6033 198.276H52.224V206.896H43.6033V198.276Z" fill="black"/>
<path d="M52.224 198.276H60.8447V206.896H52.224V198.276Z" fill="black"/>
<path d="M69.4653 198.276H78.086V206.896H69.4653V198.276Z" fill="black"/>
<path d="M95.3274 198.276H103.948V206.896H95.3274V198.276Z" fill="black"/>
<path d="M103.948 198.276H112.569V206.896H103.948V198.276Z" fill="black"/>
<path d="M129.81 198.276H138.431V206.896H129.81V198.276Z" fill="black"/>
<path d="M138.431 198.276H147.052V206.896H138.431V198.276Z" fill="black"/>
<path d="M164.293 198.276H172.914V206.896H164.293V198.276Z" fill="black"/>
<path d="M198.776 198.276H207.396V206.896H198.776V198.276Z" fill="black"/>
<path d="M207.396 198.276H216.017V206.896H207.396V198.276Z" fill="black"/>
<path d="M224.638 198.276H233.258V206.896H224.638V198.276Z" fill="black"/>
<path d="M17.7412 206.896H26.3619V215.517H17.7412V206.896Z" fill="black"/>
<path d="M34.9826 206.896H43.6033V215.517H34.9826V206.896Z" fill="black"/>
<path d="M43.6033 206.896H52.224V215.517H43.6033V206.896Z" fill="black"/>
<path d="M52.224 206.896H60.8447V215.517H52.224V206.896Z" fill="black"/>
<path d="M69.4653 206.896H78.086V215.517H69.4653V206.896Z" fill="black"/>
<path d="M95.3274 206.896H103.948V215.517H95.3274V206.896Z" fill="black"/>
<path d="M103.948 206.896H112.569V215.517H103.948V206.896Z" fill="black"/>
<path d="M112.569 206.896H121.189V215.517H112.569V206.896Z" fill="black"/>
<path d="M129.81 206.896H138.431V215.517H129.81V206.896Z" fill="black"/>
<path d="M138.431 206.896H147.052V215.517H138.431V206.896Z" fill="black"/>
<path d="M155.672 206.896H164.293V215.517H155.672V206.896Z" fill="black"/>
<path d="M172.914 206.896H181.534V215.517H172.914V206.896Z" fill="black"/>
<path d="M181.534 206.896H190.155V215.517H181.534V206.896Z" fill="black"/>
<path d="M198.776 206.896H207.396V215.517H198.776V206.896Z" fill="black"/>
<path d="M224.638 206.896H233.258V215.517H224.638V206.896Z" fill="black"/>
<path d="M17.7412 215.517H26.3619V224.138H17.7412V215.517Z" fill="black"/>
<path d="M69.4653 215.517H78.086V224.138H69.4653V215.517Z" fill="black"/>
<path d="M95.3274 215.517H103.948V224.138H95.3274V215.517Z" fill="black"/>
<path d="M147.052 215.517H155.672V224.138H147.052V215.517Z" fill="black"/>
<path d="M172.914 215.517H181.534V224.138H172.914V215.517Z" fill="black"/>
<path d="M190.155 215.517H198.776V224.138H190.155V215.517Z" fill="black"/>
<path d="M224.638 215.517H233.258V224.138H224.638V215.517Z" fill="black"/>
<path d="M17.7412 224.138H26.3619V232.758H17.7412V224.138Z" fill="black"/>
<path d="M26.3619 224.138H34.9826V232.758H26.3619V224.138Z" fill="black"/>
<path d="M34.9826 224.138H43.6033V232.758H34.9826V224.138Z" fill="black"/>
<path d="M43.6033 224.138H52.224V232.758H43.6033V224.138Z" fill="black"/>
<path d="M52.224 224.138H60.8447V232.758H52.224V224.138Z" fill="black"/>
<path d="M60.8447 224.138H69.4653V232.758H60.8447V224.138Z" fill="black"/>
<path d="M69.4653 224.138H78.086V232.758H69.4653V224.138Z" fill="black"/>
<path d="M95.3274 224.138H103.948V232.758H95.3274V224.138Z" fill="black"/>
<path d="M112.569 224.138H121.189V232.758H112.569V224.138Z" fill="black"/>
<path d="M121.189 224.138H129.81V232.758H121.189V224.138Z" fill="black"/>
<path d="M147.052 224.138H155.672V232.758H147.052V224.138Z" fill="black"/>
<path d="M155.672 224.138H164.293V232.758H155.672V224.138Z" fill="black"/>
<path d="M172.914 224.138H181.534V232.758H172.914V224.138Z" fill="black"/>
<path d="M198.776 224.138H207.396V232.758H198.776V224.138Z" fill="black"/>
<path d="M224.638 224.138H233.258V232.758H224.638V224.138Z" fill="black"/>
<path d="M26.3619 17.2412H17.7412V25.8619M26.3619 17.2412V25.8619M26.3619 17.2412H34.9826M26.3619 25.8619H17.7412M26.3619 25.8619H34.9826M26.3619 25.8619V34.4826M17.7412 25.8619V34.4826M34.9826 17.2412V25.8619M34.9826 17.2412H43.6033M34.9826 25.8619H43.6033M43.6033 17.2412V25.8619M43.6033 17.2412H52.224M43.6033 25.8619H52.224M52.224 17.2412V25.8619M52.224 17.2412H60.8447M52.224 25.8619H60.8447M60.8447 17.2412V25.8619M60.8447 17.2412H69.4653M60.8447 25.8619H69.4653M69.4653 17.2412V25.8619M69.4653 17.2412H78.086V25.8619M69.4653 25.8619H78.086M69.4653 25.8619V34.4826M78.086 25.8619V34.4826M95.3274 17.2412H86.7067V25.8619H95.3274M95.3274 17.2412V25.8619M95.3274 17.2412H103.948M95.3274 25.8619H103.948M103.948 17.2412V25.8619M103.948 17.2412H112.569V25.8619M103.948 25.8619H112.569M112.569 25.8619H121.189M112.569 25.8619V34.4826H121.189M129.81 25.8619V17.2412H121.189V25.8619M129.81 25.8619H121.189M129.81 25.8619V34.4826M129.81 25.8619H138.431V34.4826H129.81M121.189 25.8619V34.4826M181.534 17.2412H172.914V25.8619M181.534 17.2412V25.8619M181.534 17.2412H190.155M181.534 25.8619H172.914M181.534 25.8619H190.155M181.534 25.8619V34.4826M172.914 25.8619V34.4826M190.155 17.2412V25.8619M190.155 17.2412H198.776M190.155 25.8619H198.776M198.776 17.2412V25.8619M198.776 17.2412H207.396M198.776 25.8619H207.396M207.396 17.2412V25.8619M207.396 17.2412H216.017M207.396 25.8619H216.017M216.017 17.2412V25.8619M216.017 17.2412H224.638M216.017 25.8619H224.638M224.638 17.2412V25.8619M224.638 17.2412H233.258V25.8619M224.638 25.8619H233.258M224.638 25.8619V34.4826M233.258 25.8619V34.4826M26.3619 34.4826H17.7412M26.3619 34.4826V43.1033M17.7412 34.4826V43.1033M78.086 34.4826H69.4653M78.086 34.4826V43.1033M69.4653 34.4826V43.1033M121.189 34.4826H129.81M121.189 34.4826V43.1033M129.81 34.4826V43.1033H121.189M155.672 25.8619H147.052V34.4826M155.672 25.8619V34.4826M155.672 25.8619H164.293V34.4826M155.672 34.4826H147.052M155.672 34.4826H164.293M155.672 34.4826V43.1033M147.052 34.4826V43.1033M164.293 34.4826V43.1033H155.672M181.534 34.4826H172.914M181.534 34.4826V43.1033M172.914 34.4826V43.1033M233.258 34.4826H224.638M233.258 34.4826V43.1033M224.638 34.4826V43.1033M26.3619 43.1033H17.7412M26.3619 43.1033V51.724M17.7412 43.1033V51.724M43.6033 34.4826H34.9826V43.1033M43.6033 34.4826V43.1033M43.6033 34.4826H52.224M43.6033 43.1033H34.9826M43.6033 43.1033H52.224M43.6033 43.1033V51.724M34.9826 43.1033V51.724M52.224 34.4826V43.1033M52.224 34.4826H60.8447V43.1033M52.224 43.1033H60.8447M52.224 43.1033V51.724M60.8447 43.1033V51.724M78.086 43.1033H69.4653M78.086 43.1033V51.724M69.4653 43.1033V51.724M95.3274 34.4826H86.7067V43.1033H95.3274M95.3274 34.4826V43.1033M95.3274 34.4826H103.948V43.1033M95.3274 43.1033H103.948M95.3274 43.1033V51.724M103.948 43.1033V51.724M103.948 43.1033H112.569M121.189 43.1033H112.569M121.189 43.1033V51.724M155.672 43.1033H147.052M155.672 43.1033V51.724M147.052 43.1033V51.724M181.534 43.1033H172.914M181.534 43.1033V51.724M172.914 43.1033V51.724M198.776 34.4826H190.155V43.1033M198.776 34.4826V43.1033M198.776 34.4826H207.396M198.776 43.1033H190.155M198.776 43.1033H207.396M198.776 43.1033V51.724M190.155 43.1033V51.724M207.396 34.4826V43.1033M207.396 34.4826H216.017V43.1033M207.396 43.1033H216.017M207.396 43.1033V51.724M216.017 43.1033V51.724M233.258 43.1033H224.638M233.258 43.1033V51.724M224.638 43.1033V51.724M26.3619 51.724H17.7412M26.3619 51.724V60.3447M17.7412 51.724V60.3447M43.6033 51.724H34.9826M43.6033 51.724H52.224M43.6033 51.724V60.3447M34.9826 51.724V60.3447H43.6033M52.224 51.724H60.8447M52.224 51.724V60.3447M60.8447 51.724V60.3447H52.224M78.086 51.724H69.4653M78.086 51.724V60.3447M69.4653 51.724V60.3447M103.948 51.724H95.3274M103.948 51.724H112.569M95.3274 51.724H86.7067V60.3447H95.3274V51.724ZM112.569 43.1033V51.724M112.569 51.724H121.189M112.569 51.724V60.3447H121.189V51.724M155.672 51.724H147.052M155.672 51.724V60.3447M155.672 51.724H164.293V60.3447M147.052 51.724V60.3447M181.534 51.724H172.914M181.534 51.724V60.3447M172.914 51.724V60.3447M198.776 51.724H190.155M198.776 51.724H207.396M198.776 51.724V60.3447M190.155 51.724V60.3447H198.776M207.396 51.724H216.017M207.396 51.724V60.3447M216.017 51.724V60.3447H207.396M233.258 51.724H224.638M233.258 51.724V60.3447M224.638 51.724V60.3447M26.3619 60.3447H17.7412M26.3619 60.3447V68.9653M17.7412 60.3447V68.9653M43.6033 60.3447H52.224M78.086 60.3447H69.4653M78.086 60.3447V68.9653M69.4653 60.3447V68.9653M155.672 60.3447H147.052M155.672 60.3447H164.293M155.672 60.3447V68.9653M147.052 60.3447V68.9653M164.293 60.3447V68.9653M181.534 60.3447H172.914M181.534 60.3447V68.9653M172.914 60.3447V68.9653M198.776 60.3447H207.396M233.258 60.3447H224.638M233.258 60.3447V68.9653M224.638 60.3447V68.9653M26.3619 68.9653H17.7412M26.3619 68.9653V77.586M26.3619 68.9653H34.9826M17.7412 68.9653V77.586H26.3619M78.086 68.9653H69.4653M78.086 68.9653V77.586H69.4653M69.4653 68.9653H60.8447M69.4653 68.9653V77.586M155.672 68.9653H147.052M155.672 68.9653H164.293M155.672 68.9653V77.586M147.052 68.9653H138.431V77.586M147.052 68.9653V77.586M164.293 68.9653V77.586H155.672M181.534 68.9653H172.914M181.534 68.9653V77.586M181.534 68.9653H190.155M172.914 68.9653V77.586H181.534M233.258 68.9653H224.638M233.258 68.9653V77.586H224.638M224.638 68.9653H216.017M224.638 68.9653V77.586M26.3619 77.586H34.9826M34.9826 68.9653V77.586M34.9826 68.9653H43.6033M34.9826 77.586H43.6033M43.6033 68.9653V77.586M43.6033 68.9653H52.224M43.6033 77.586H52.224M52.224 68.9653V77.586M52.224 68.9653H60.8447M52.224 77.586H60.8447M60.8447 68.9653V77.586M60.8447 77.586H69.4653M95.3274 77.586V68.9653H86.7067V77.586M95.3274 77.586H86.7067M95.3274 77.586V86.2067M86.7067 77.586V86.2067H95.3274M112.569 77.586V68.9653H103.948V77.586M112.569 77.586H103.948M112.569 77.586V86.2067H103.948M103.948 77.586V86.2067M129.81 77.586V68.9653H121.189V77.586M129.81 77.586H121.189M129.81 77.586V86.2067M129.81 77.586H138.431M121.189 77.586V86.2067M147.052 77.586H138.431M147.052 77.586H155.672M147.052 77.586V86.2067M138.431 77.586V86.2067M155.672 77.586V86.2067M181.534 77.586H190.155M190.155 68.9653V77.586M190.155 68.9653H198.776M190.155 77.586H198.776M198.776 68.9653V77.586M198.776 68.9653H207.396M198.776 77.586H207.396M207.396 68.9653V77.586M207.396 68.9653H216.017M207.396 77.586H216.017M216.017 68.9653V77.586M216.017 77.586H224.638M95.3274 86.2067H103.948M95.3274 86.2067V94.8274M103.948 86.2067V94.8274M129.81 86.2067H121.189M129.81 86.2067H138.431M129.81 86.2067V94.8274M121.189 86.2067V94.8274H129.81M138.431 86.2067V94.8274M155.672 86.2067H147.052M155.672 86.2067V94.8274M147.052 86.2067V94.8274M69.4653 86.2067H60.8447V94.8274M69.4653 86.2067V94.8274M69.4653 86.2067H78.086V94.8274M69.4653 94.8274H60.8447M69.4653 94.8274H78.086M69.4653 94.8274V103.448M60.8447 94.8274V103.448M78.086 94.8274H86.7067M78.086 94.8274V103.448M103.948 94.8274H95.3274M103.948 94.8274V103.448M95.3274 94.8274H86.7067M95.3274 94.8274V103.448M129.81 94.8274H138.431M138.431 94.8274H147.052M138.431 94.8274V103.448M155.672 94.8274H147.052M155.672 94.8274V103.448M147.052 94.8274V103.448M181.534 94.8274V86.2067H172.914V94.8274M181.534 94.8274H172.914M181.534 94.8274H190.155M181.534 94.8274V103.448H190.155M172.914 94.8274H164.293V103.448M172.914 94.8274V103.448H164.293M198.776 94.8274V86.2067H190.155V94.8274M198.776 94.8274H190.155M198.776 94.8274V103.448M198.776 94.8274H207.396M190.155 94.8274V103.448M207.396 94.8274H216.017V86.2067H207.396V94.8274ZM207.396 94.8274V103.448H198.776M34.9826 103.448V94.8274H26.3619V103.448M34.9826 103.448H26.3619M34.9826 103.448H43.6033M34.9826 103.448V112.069M26.3619 103.448H17.7412V112.069H26.3619M26.3619 103.448V112.069M69.4653 103.448H60.8447M69.4653 103.448H78.086M69.4653 103.448V112.069H78.086V103.448M60.8447 103.448H52.224M60.8447 103.448V112.069H52.224M86.7067 94.8274V103.448M86.7067 103.448H78.086M86.7067 103.448H95.3274M95.3274 103.448H103.948M95.3274 103.448V112.069M103.948 103.448V112.069M147.052 103.448H138.431M147.052 103.448H155.672M147.052 103.448V112.069M138.431 103.448V112.069M155.672 103.448V112.069M155.672 103.448H164.293M164.293 103.448V112.069M190.155 103.448H198.776M26.3619 112.069H34.9826M26.3619 112.069V120.689M43.6033 103.448V112.069M43.6033 103.448H52.224M43.6033 112.069H34.9826M43.6033 112.069H52.224M43.6033 112.069V120.689M34.9826 112.069V120.689M52.224 103.448V112.069M52.224 112.069V120.689M103.948 112.069H95.3274M103.948 112.069H112.569M103.948 112.069V120.689M95.3274 112.069H86.7067V120.689M95.3274 112.069V120.689M112.569 112.069H121.189V103.448H112.569V112.069ZM112.569 112.069V120.689H103.948M147.052 112.069H138.431M147.052 112.069H155.672M138.431 112.069H129.81V120.689H138.431M138.431 112.069V120.689M155.672 112.069H164.293M155.672 112.069V120.689M164.293 112.069V120.689M164.293 112.069H172.914M224.638 103.448H216.017V112.069M224.638 103.448V112.069M224.638 103.448H233.258V112.069H224.638M224.638 112.069H216.017M224.638 112.069V120.689H216.017V112.069M34.9826 120.689H26.3619M34.9826 120.689H43.6033M34.9826 120.689V129.31M26.3619 120.689V129.31M43.6033 120.689H52.224M43.6033 120.689V129.31M52.224 120.689V129.31M52.224 120.689H60.8447M95.3274 120.689H86.7067M95.3274 120.689V129.31M95.3274 120.689H103.948M86.7067 120.689V129.31M103.948 120.689V129.31M138.431 120.689H147.052M138.431 120.689V129.31M164.293 120.689H155.672M164.293 120.689H172.914M164.293 120.689V129.31H172.914M155.672 120.689H147.052M155.672 120.689V129.31H147.052M172.914 112.069V120.689M172.914 112.069H181.534V120.689M172.914 120.689H181.534M172.914 120.689V129.31M181.534 120.689V129.31M198.776 112.069H190.155V120.689H198.776M198.776 112.069V120.689M198.776 112.069H207.396V120.689M198.776 120.689H207.396M198.776 120.689V129.31H207.396V120.689M34.9826 129.31H26.3619M34.9826 129.31H43.6033M34.9826 129.31V137.931M26.3619 129.31H17.7412V137.931M26.3619 129.31V137.931M52.224 129.31H43.6033M52.224 129.31H60.8447M52.224 129.31V137.931H60.8447M43.6033 129.31V137.931M60.8447 120.689V129.31M60.8447 120.689H69.4653M60.8447 129.31H69.4653M60.8447 129.31V137.931M69.4653 120.689V129.31M69.4653 120.689H78.086V129.31M69.4653 129.31H78.086M69.4653 129.31V137.931M78.086 129.31H86.7067M78.086 129.31V137.931M95.3274 129.31H86.7067M95.3274 129.31H103.948M95.3274 129.31V137.931M86.7067 129.31V137.931M103.948 129.31V137.931M103.948 129.31H112.569M147.052 120.689V129.31M147.052 129.31H138.431M138.431 129.31H129.81V137.931M138.431 129.31V137.931H129.81M172.914 129.31H181.534M172.914 129.31V137.931M181.534 129.31V137.931M181.534 129.31H190.155V137.931M26.3619 137.931H17.7412M26.3619 137.931V146.552M17.7412 137.931V146.552M43.6033 137.931H34.9826M43.6033 137.931V146.552M34.9826 137.931V146.552H43.6033M60.8447 137.931H69.4653M60.8447 137.931V146.552M69.4653 137.931V146.552M69.4653 137.931H78.086M86.7067 137.931H78.086M86.7067 137.931H95.3274M86.7067 137.931V146.552M78.086 137.931V146.552M95.3274 137.931H103.948M95.3274 137.931V146.552M103.948 137.931H112.569M112.569 129.31V137.931M112.569 129.31H121.189V137.931M112.569 137.931H121.189M121.189 137.931H129.81M121.189 137.931V146.552M129.81 137.931V146.552M181.534 137.931H172.914M181.534 137.931H190.155M181.534 137.931V146.552H190.155M172.914 137.931H164.293M172.914 137.931V146.552H164.293M190.155 137.931V146.552M190.155 137.931H198.776M26.3619 146.552H17.7412M26.3619 146.552V155.172M17.7412 146.552V155.172M43.6033 146.552H52.224V155.172M43.6033 146.552V155.172M69.4653 146.552H60.8447M69.4653 146.552H78.086M69.4653 146.552V155.172M60.8447 146.552V155.172M78.086 146.552H86.7067M86.7067 146.552H95.3274M95.3274 146.552H103.948M95.3274 146.552V155.172M129.81 146.552H121.189M129.81 146.552V155.172M129.81 146.552H138.431V155.172M121.189 146.552H112.569M121.189 146.552V155.172M155.672 137.931H147.052V146.552H155.672M155.672 137.931V146.552M155.672 137.931H164.293M155.672 146.552H164.293M155.672 146.552V155.172M164.293 137.931V146.552M164.293 146.552V155.172M190.155 146.552H198.776M198.776 137.931V146.552M198.776 137.931H207.396M198.776 146.552H207.396M198.776 146.552V155.172M207.396 137.931V146.552M207.396 137.931H216.017M207.396 146.552H216.017M207.396 146.552V155.172M216.017 137.931V146.552M216.017 137.931H224.638M216.017 146.552H224.638M216.017 146.552V155.172M224.638 137.931V146.552M224.638 137.931H233.258V146.552H224.638M224.638 146.552V155.172H216.017M26.3619 155.172H17.7412M26.3619 155.172V163.793H17.7412V155.172M52.224 155.172H43.6033M52.224 155.172V163.793M52.224 155.172H60.8447M43.6033 155.172V163.793H52.224M69.4653 155.172H60.8447M69.4653 155.172H78.086M69.4653 155.172V163.793H78.086M60.8447 155.172V163.793H52.224M103.948 146.552V155.172M103.948 146.552H112.569M103.948 155.172H95.3274M103.948 155.172H112.569M103.948 155.172V163.793H95.3274M95.3274 155.172H86.7067M95.3274 155.172V163.793M112.569 146.552V155.172M112.569 155.172H121.189M121.189 155.172H129.81M121.189 155.172V163.793H129.81M129.81 155.172H138.431M129.81 155.172V163.793M138.431 155.172V163.793M138.431 155.172H147.052M164.293 155.172H155.672M164.293 155.172V163.793M164.293 155.172H172.914M155.672 155.172H147.052M155.672 155.172V163.793M207.396 155.172H198.776M207.396 155.172H216.017M207.396 155.172V163.793M198.776 155.172H190.155M198.776 155.172V163.793M216.017 155.172V163.793H207.396M78.086 155.172V163.793M78.086 155.172H86.7067M78.086 163.793H86.7067M86.7067 155.172V163.793M86.7067 163.793H95.3274M86.7067 163.793V172.414H95.3274V163.793M129.81 163.793H138.431M138.431 163.793H147.052M138.431 163.793V172.414M147.052 155.172V163.793M147.052 163.793H155.672M147.052 163.793V172.414M155.672 163.793H164.293M155.672 163.793V172.414M164.293 163.793H172.914M164.293 163.793V172.414M172.914 155.172V163.793M172.914 155.172H181.534M172.914 163.793H181.534M181.534 155.172V163.793M181.534 155.172H190.155M181.534 163.793H190.155M190.155 155.172V163.793M190.155 163.793H198.776M190.155 163.793V172.414M198.776 163.793H207.396M198.776 163.793V172.414M147.052 172.414H138.431M147.052 172.414H155.672M147.052 172.414V181.034M138.431 172.414H129.81V181.034H138.431M138.431 172.414V181.034M164.293 172.414H155.672M164.293 172.414V181.034M155.672 172.414V181.034M198.776 172.414H190.155M198.776 172.414V181.034M190.155 172.414V181.034M26.3619 172.414H17.7412V181.034M26.3619 172.414V181.034M26.3619 172.414H34.9826M26.3619 181.034H17.7412M26.3619 181.034H34.9826M26.3619 181.034V189.655M17.7412 181.034V189.655M34.9826 172.414V181.034M34.9826 172.414H43.6033M34.9826 181.034H43.6033M43.6033 172.414V181.034M43.6033 172.414H52.224M43.6033 181.034H52.224M52.224 172.414V181.034M52.224 172.414H60.8447M52.224 181.034H60.8447M60.8447 172.414V181.034M60.8447 172.414H69.4653M60.8447 181.034H69.4653M69.4653 172.414V181.034M69.4653 172.414H78.086V181.034M69.4653 181.034H78.086M69.4653 181.034V189.655M78.086 181.034V189.655M138.431 181.034H147.052M138.431 181.034V189.655M155.672 181.034H147.052M155.672 181.034H164.293M155.672 181.034V189.655M147.052 181.034V189.655M164.293 181.034V189.655M198.776 181.034H190.155M198.776 181.034V189.655M198.776 181.034H207.396M190.155 181.034V189.655M207.396 181.034H216.017V172.414H207.396V181.034ZM207.396 181.034V189.655M26.3619 189.655H17.7412M26.3619 189.655V198.276M17.7412 189.655V198.276M78.086 189.655H69.4653M78.086 189.655V198.276M69.4653 189.655V198.276M112.569 181.034H103.948V189.655M112.569 181.034V189.655M112.569 181.034H121.189V189.655M112.569 189.655H103.948M112.569 189.655H121.189M112.569 189.655V198.276M103.948 189.655V198.276M121.189 189.655H129.81M121.189 189.655V198.276H129.81M147.052 189.655H138.431M147.052 189.655H155.672M138.431 189.655H129.81M138.431 189.655V198.276M155.672 189.655H164.293M155.672 189.655V198.276H164.293M164.293 189.655V198.276M164.293 189.655H172.914M198.776 189.655H190.155M198.776 189.655H207.396M198.776 189.655V198.276M190.155 189.655H181.534M190.155 189.655V198.276M207.396 189.655H216.017V198.276M207.396 189.655V198.276M26.3619 198.276H17.7412M26.3619 198.276V206.896M17.7412 198.276V206.896M43.6033 189.655H34.9826V198.276M43.6033 189.655V198.276M43.6033 189.655H52.224M43.6033 198.276H34.9826M43.6033 198.276H52.224M43.6033 198.276V206.896M34.9826 198.276V206.896M52.224 189.655V198.276M52.224 189.655H60.8447V198.276M52.224 198.276H60.8447M52.224 198.276V206.896M60.8447 198.276V206.896M78.086 198.276H69.4653M78.086 198.276V206.896M69.4653 198.276V206.896M112.569 198.276H103.948M112.569 198.276V206.896M103.948 198.276H95.3274V206.896M103.948 198.276V206.896M129.81 189.655V198.276M129.81 198.276H138.431M129.81 198.276V206.896M138.431 198.276V206.896M138.431 198.276H147.052V206.896M164.293 198.276H172.914M164.293 198.276V206.896M172.914 189.655V198.276M172.914 189.655H181.534M172.914 198.276H181.534M172.914 198.276V206.896M181.534 189.655V198.276M181.534 198.276H190.155M190.155 198.276H198.776M198.776 198.276H207.396M198.776 198.276V206.896M216.017 198.276H207.396M216.017 198.276V206.896H207.396M207.396 198.276V206.896M26.3619 206.896H17.7412M26.3619 206.896V215.517M17.7412 206.896V215.517M43.6033 206.896H34.9826M43.6033 206.896H52.224M43.6033 206.896V215.517M34.9826 206.896V215.517H43.6033M52.224 206.896H60.8447M52.224 206.896V215.517M60.8447 206.896V215.517H52.224M78.086 206.896H69.4653M78.086 206.896V215.517M69.4653 206.896V215.517M103.948 206.896H95.3274M103.948 206.896H112.569M103.948 206.896V215.517M95.3274 206.896V215.517M112.569 206.896V215.517M112.569 206.896H121.189V215.517H112.569M138.431 206.896H129.81M138.431 206.896H147.052M138.431 206.896V215.517M129.81 206.896V215.517H138.431M147.052 206.896V215.517M172.914 206.896H164.293M172.914 206.896H181.534M172.914 206.896V215.517M164.293 206.896H155.672V215.517M164.293 206.896V215.517H155.672M207.396 206.896H198.776M207.396 206.896V215.517H198.776M198.776 206.896V215.517M233.258 206.896V198.276H224.638V206.896M233.258 206.896H224.638M233.258 206.896V215.517M224.638 206.896V215.517M26.3619 215.517H17.7412M26.3619 215.517V224.138M17.7412 215.517V224.138M43.6033 215.517H52.224M78.086 215.517H69.4653M78.086 215.517V224.138M69.4653 215.517V224.138M103.948 215.517H95.3274M103.948 215.517H112.569M103.948 215.517V224.138M95.3274 215.517V224.138M138.431 215.517H147.052M147.052 215.517H155.672M147.052 215.517V224.138M155.672 215.517V224.138M181.534 206.896V215.517M181.534 206.896H190.155V215.517M181.534 215.517H172.914M181.534 215.517H190.155M181.534 215.517V224.138M172.914 215.517V224.138M190.155 215.517H198.776M190.155 215.517V224.138H198.776M198.776 215.517V224.138M233.258 215.517H224.638M233.258 215.517V224.138M224.638 215.517V224.138M26.3619 224.138H17.7412M26.3619 224.138V232.758M26.3619 224.138H34.9826M17.7412 224.138V232.758H26.3619M78.086 224.138H69.4653M78.086 224.138V232.758H69.4653M69.4653 224.138H60.8447M69.4653 224.138V232.758M103.948 224.138H95.3274M103.948 224.138V232.758H95.3274V224.138M155.672 224.138H147.052M155.672 224.138V232.758M155.672 224.138H164.293V232.758H155.672M147.052 224.138V232.758H155.672M181.534 224.138H172.914M181.534 224.138V232.758H172.914V224.138M198.776 224.138H207.396V232.758H198.776V224.138ZM233.258 224.138H224.638M233.258 224.138V232.758H224.638V224.138M26.3619 232.758H34.9826M34.9826 224.138V232.758M34.9826 224.138H43.6033M34.9826 232.758H43.6033M43.6033 224.138V232.758M43.6033 224.138H52.224M43.6033 232.758H52.224M52.224 224.138V232.758M52.224 224.138H60.8447M52.224 232.758H60.8447M60.8447 224.138V232.758M60.8447 232.758H69.4653M121.189 224.138H112.569V232.758H121.189M121.189 224.138V232.758M121.189 224.138H129.81V232.758H121.189M224.638 86.2067H233.258V94.8274H224.638V86.2067ZM172.914 172.414H181.534V181.034H172.914V172.414ZM224.638 172.414H233.258V181.034H224.638V172.414ZM86.7067 181.034H95.3274V189.655H86.7067V181.034Z" stroke="black" stroke-width="0.5"/>
</svg>
